<svg width="200" height="200" viewBox="0 0 200 200" fill="none" xmlns="http://www.w3.org/2000/svg">
  <!-- Outer shield layers -->
  <path d="M100 20 L170 50 L170 110 Q170 150 100 180 Q30 150 30 110 L30 50 Z" fill="#1E40AF" stroke="#1E40AF" stroke-width="8"/>
  <path d="M100 30 L160 55 L160 110 Q160 145 100 170 Q40 145 40 110 L40 55 Z" fill="#FFFFFF"/>
  <path d="M100 35 L155 57 L155 110 Q155 142 100 167 Q45 142 45 110 L45 57 Z" fill="#475569" stroke="#475569" stroke-width="6"/>
  <path d="M100 45 L145 62 L145 110 Q145 137 100 157 Q55 137 55 110 L55 62 Z" fill="#FFFFFF"/>
  
  <!-- Inner shield -->
  <path d="M100 50 L140 65 L140 105 Q140 130 100 147 Q60 130 60 105 L60 65 Z" fill="#1E40AF" opacity="0.1"/>
  
  <!-- Lock body (hexagonal) -->
  <path d="M100 95 L115 105 L115 125 L100 135 L85 125 L85 105 Z" fill="#475569"/>
  
  <!-- Lock shackle -->
  <ellipse cx="100" cy="95" rx="15" ry="20" fill="none" stroke="#1E40AF" stroke-width="6"/>
  
  <!-- Keyhole -->
  <circle cx="100" cy="110" r="4" fill="#10B981"/>
  <path d="M98 113 L102 113 L101 123 L99 123 Z" fill="#10B981"/>
  
  <!-- Glow rays -->
  <g opacity="0.3">
    <line x1="100" y1="100" x2="75" y2="100" stroke="#10B981" stroke-width="2"/>
    <line x1="100" y1="100" x2="125" y2="100" stroke="#10B981" stroke-width="2"/>
    <line x1="100" y1="100" x2="85" y2="90" stroke="#10B981" stroke-width="1.5"/>
    <line x1="100" y1="100" x2="115" y2="90" stroke="#10B981" stroke-width="1.5"/>
    <line x1="100" y1="100" x2="85" y2="110" stroke="#10B981" stroke-width="1.5"/>
    <line x1="100" y1="100" x2="115" y2="110" stroke="#10B981" stroke-width="1.5"/>
  </g>
</svg>
